<svg width="1901" height="185" viewBox="0 0 1901 185" fill="none" xmlns="http://www.w3.org/2000/svg">
<path d="M0.824276 22.4516V3.32411H134.369V22.4516H78.3776V181.384H56.8157V22.4516H0.824276ZM167.647 181.384V3.32411H189.208V82.6163H284.15V3.32411H305.712V181.384H284.15V101.744H189.208V181.384H167.647ZM499.117 92.354C499.117 111.134 495.727 127.363 488.945 141.042C482.164 154.721 472.861 165.27 461.036 172.689C449.212 180.109 435.707 183.818 420.521 183.818C405.335 183.818 391.83 180.109 380.005 172.689C368.181 165.27 358.878 154.721 352.097 141.042C345.315 127.363 341.924 111.134 341.924 92.354C341.924 73.5742 345.315 57.3448 352.097 43.6658C358.878 29.9867 368.181 19.4376 380.005 12.0184C391.83 4.59928 405.335 0.889703 420.521 0.889703C435.707 0.889703 449.212 4.59928 461.036 12.0184C472.861 19.4376 482.164 29.9867 488.945 43.6658C495.727 57.3448 499.117 73.5742 499.117 92.354ZM478.251 92.354C478.251 76.936 475.672 63.9235 470.513 53.3165C465.413 42.7094 458.486 34.6816 449.734 29.2332C441.039 23.7847 431.302 21.0605 420.521 21.0605C409.74 21.0605 399.973 23.7847 391.221 29.2332C382.527 34.6816 375.6 42.7094 370.442 53.3165C365.341 63.9235 362.791 76.936 362.791 92.354C362.791 107.772 365.341 120.784 370.442 131.391C375.6 141.999 382.527 150.026 391.221 155.475C399.973 160.923 409.74 163.647 420.521 163.647C431.302 163.647 441.039 160.923 449.734 155.475C458.486 150.026 465.413 141.999 470.513 131.391C475.672 120.784 478.251 107.772 478.251 92.354ZM535.373 3.32411H561.108L621.62 151.128H623.707L684.22 3.32411H709.955V181.384H689.784V46.1002H688.045L632.401 181.384H612.926L557.283 46.1002H555.544V181.384H535.373V3.32411ZM760.491 181.384H737.885L803.267 3.32411H825.524L890.905 181.384H868.3L815.091 31.4937H813.7L760.491 181.384ZM768.837 111.829H859.954V130.957H768.837V111.829ZM1016.02 47.839C1014.97 39.0288 1010.74 32.1893 1003.32 27.3204C995.904 22.4516 986.804 20.0172 976.023 20.0172C968.14 20.0172 961.242 21.2924 955.33 23.8427C949.476 26.393 944.897 29.8997 941.593 34.3628C938.347 38.8259 936.724 43.8976 936.724 49.5779C936.724 54.3308 937.855 58.4171 940.115 61.8369C942.434 65.1987 945.39 68.0099 948.983 70.2704C952.577 72.4729 956.345 74.2987 960.286 75.7478C964.227 77.1389 967.85 78.2692 971.154 79.1386L989.238 84.0074C993.875 85.2246 999.034 86.9055 1004.71 89.0501C1010.45 91.1947 1015.93 94.1218 1021.15 97.8314C1026.42 101.483 1030.77 106.178 1034.19 111.916C1037.61 117.654 1039.32 124.697 1039.32 133.043C1039.32 142.665 1036.8 151.359 1031.75 159.126C1026.77 166.893 1019.47 173.066 1009.84 177.645C1000.28 182.224 988.658 184.514 974.979 184.514C962.228 184.514 951.186 182.456 941.854 178.341C932.58 174.225 925.277 168.487 919.944 161.126C914.67 153.765 911.685 145.215 910.989 135.478H933.247C933.826 142.201 936.087 147.766 940.028 152.171C944.028 156.518 949.07 159.764 955.156 161.909C961.3 163.995 967.908 165.038 974.979 165.038C983.21 165.038 990.6 163.705 997.15 161.039C1003.7 158.315 1008.89 154.547 1012.71 149.736C1016.54 144.868 1018.45 139.187 1018.45 132.696C1018.45 126.783 1016.8 121.973 1013.5 118.263C1010.19 114.553 1005.84 111.539 1000.45 109.221C995.063 106.902 989.238 104.874 982.978 103.135L961.068 96.875C947.158 92.8756 936.145 87.1663 928.03 79.7472C919.915 72.328 915.858 62.6194 915.858 50.6212C915.858 40.6517 918.553 31.9574 923.944 24.5383C929.392 17.0611 936.695 11.2649 945.853 7.14961C955.069 2.97634 965.358 0.889703 976.718 0.889703C988.195 0.889703 998.396 2.94736 1007.32 7.06267C1016.25 11.12 1023.32 16.6844 1028.54 23.7558C1033.81 30.8271 1036.59 38.8549 1036.88 47.839H1016.02ZM1113.46 181.384V3.32411H1161.8V142.433H1233.79V181.384H1113.46ZM1418.89 92.354C1418.89 112.177 1415.04 128.899 1407.33 142.52C1399.62 156.083 1389.21 166.372 1376.11 173.385C1363.01 180.34 1348.41 183.818 1332.29 183.818C1316.06 183.818 1301.4 180.311 1288.3 173.298C1275.26 166.227 1264.88 155.909 1257.18 142.346C1249.52 128.725 1245.7 112.061 1245.7 92.354C1245.7 72.5309 1249.52 55.8378 1257.18 42.2747C1264.88 28.6536 1275.26 18.3653 1288.3 11.4098C1301.4 4.39641 1316.06 0.889703 1332.29 0.889703C1348.41 0.889703 1363.01 4.39641 1376.11 11.4098C1389.21 18.3653 1399.62 28.6536 1407.33 42.2747C1415.04 55.8378 1418.89 72.5309 1418.89 92.354ZM1369.16 92.354C1369.16 81.6889 1367.74 72.7048 1364.9 65.4016C1362.12 58.0404 1357.97 52.476 1352.47 48.7085C1347.02 44.883 1340.29 42.9702 1332.29 42.9702C1324.3 42.9702 1317.54 44.883 1312.04 48.7085C1306.59 52.476 1302.44 58.0404 1299.6 65.4016C1296.82 72.7048 1295.43 81.6889 1295.43 92.354C1295.43 103.019 1296.82 112.032 1299.6 119.393C1302.44 126.697 1306.59 132.261 1312.04 136.086C1317.54 139.854 1324.3 141.738 1332.29 141.738C1340.29 141.738 1347.02 139.854 1352.47 136.086C1357.97 132.261 1362.12 126.697 1364.9 119.393C1367.74 112.032 1369.16 103.019 1369.16 92.354ZM1441.26 181.384V3.32411H1518.11C1531.33 3.32411 1542.89 5.93241 1552.8 11.149C1562.72 16.3656 1570.42 23.6978 1575.93 33.1456C1581.44 42.5935 1584.19 53.6352 1584.19 66.271C1584.19 79.0227 1581.35 90.0644 1575.67 99.3964C1570.05 108.728 1562.14 115.916 1551.93 120.958C1541.79 126.001 1529.94 128.522 1516.37 128.522H1470.47V90.9629H1506.64C1512.32 90.9629 1517.16 89.9775 1521.16 88.0068C1525.21 85.9781 1528.31 83.109 1530.46 79.3994C1532.66 75.6898 1533.76 71.3137 1533.76 66.271C1533.76 61.1703 1532.66 56.8232 1530.46 53.2295C1528.31 49.5779 1525.21 46.7957 1521.16 44.883C1517.16 42.9122 1512.32 41.9269 1506.64 41.9269H1489.6V181.384H1441.26ZM1601.93 181.384V3.32411H1730.25V42.2747H1650.27V72.8787H1723.65V111.829H1650.27V142.433H1729.91V181.384H1601.93ZM1754.93 181.384V154.605L1839.09 42.2747H1755.27V3.32411H1900.64V30.1026L1816.48 142.433H1900.29V181.384H1754.93Z" fill="#2E4790"/>
</svg>
